<?xml version="1.0" encoding="utf-8"?>
<!-- Generator: Adobe Illustrator 25.0.1, SVG Export Plug-In . SVG Version: 6.00 Build 0)  -->
<svg version="1.1" id="Layer_1" xmlns="http://www.w3.org/2000/svg" xmlns:xlink="http://www.w3.org/1999/xlink" x="0px" y="0px"
	 viewBox="0 0 1079 1080" style="enable-background:new 0 0 1079 1080;" xml:space="preserve">
<path d="M43.1,751.7c34.8,81.7,89.2,153,157.2,208.1V751.7H43.1z M200.3,120.2C78.1,219.2,0,370.5,0,540c0,36.2,3.6,71.6,10.4,105.8
	h189.8V120.2z M1068.6,645.8c6.8-34.2,10.4-69.6,10.4-105.8C1079,241.8,837.4,0,539.5,0c-22.4,0-44.4,1.5-66.1,4.2v641.6
	L1068.6,645.8L1068.6,645.8z M473.4,1075.8c21.7,2.6,43.7,4.2,66.1,4.2c222.9,0,414.2-135.3,496.5-328.3H473.4V1075.8z"/>
</svg>
