<svg id="Layer_1" data-name="Layer 1" xmlns="http://www.w3.org/2000/svg" viewBox="0 0 1080 1080"><defs><style>.cls-1{fill:#fff;}</style></defs><path class="cls-1" d="M584.78,538.68,815.65,769.55l-43.56,43.56L541.21,582.25,310.34,813.11l-43.56-43.56L497.65,538.68,266.78,307.81l43.56-43.56L541.21,495.12,772.09,264.25l43.56,43.56ZM924,921.46c208-210.79,208-549.6,0-760.38C714-51.7,371.31-54,158.53,156A541.27,541.27,0,0,0,0,538.71C0,837.65,242.32,1080,541.26,1080A537.86,537.86,0,0,0,924,921.46ZM880.35,199.64h0c187.38,187.28,187.46,491,.19,678.36s-491,187.46-678.37.18A479.52,479.52,0,0,1,61.34,538.36C61.55,273.52,276.41,59,541.26,59.19A476.74,476.74,0,0,1,880.35,199.64Z" transform="translate(0 0)"/></svg>