<svg id="Layer_1" data-name="Layer 1" xmlns="http://www.w3.org/2000/svg" viewBox="0 0 1080 351.1"><defs><style>.cls-1{fill:#fff;}</style></defs><path class="cls-1" d="M467,18.28c5.08.15,10.59,1.18,10.59,8.58V93.93c0,6.86-1,12-2.53,15.9h11.88a79.42,79.42,0,0,0,1.43-15.77V27.16c0-7.38,6.41-8,11.42-7.87,1.27,0,1.72-.72,1.72-2,0-1.77-.58-2.29-1.67-2.33l-32.89-1c-1.1,0-1.7.45-1.7,2.24,0,1.31.46,2.11,1.75,2.15ZM391.05,16c5.27.16,11.59,1.42,11.59,9V93.17a60.92,60.92,0,0,0,2.19,16.66h32.82c-2.53-4.67-4.07-10.72-4.07-18.1V25.85c0-7.47,6.22-8.33,11.36-8.17,1.31,0,1.77-.74,1.77-2,0-1.79-.6-2.32-1.72-2.36l-54-1.73c-1.14,0-1.76.46-1.76,2.28,0,1.33.47,2.15,1.82,2.19Zm83,95.9c-4.57,8.69-12.68,9.57-18.49,9.54-6.34,0-12.49-3.27-16.66-9.54H405.48c5.69,17,19.94,28,42.51,28s34.22-10.69,38.44-28Zm31.5-92.57c5.3,0,11.68.89,11.68,8.64v81.85h31V88.36c28.58,9,55.27-8.78,55.27-39.24,0-24.94-22.64-34.37-42.5-34.37H505.5c-1.15,0-1.77.54-1.77,2.4,0,1.37.47,2.19,1.82,2.19ZM574.17,50c0,19.45-7.13,28.93-18.34,30.29-.59.07-7.42-.45-7.62-2.35V20.84c17.44,0,26,10.6,26,29.19Zm-14.29,85.21c-5.3,0-11.67-.89-11.67-8.65V111.91h-31v14.68c0,7.76-6.38,8.65-11.68,8.65-1.35,0-1.82.82-1.82,2.19,0,1.86.62,2.39,1.77,2.39h54.43c1.16,0,1.78-.53,1.78-2.39,0-1.37-.48-2.19-1.83-2.19Zm266.94.88c-5.68.12-14.5-3.2-19.72-11.87-1.1-1.83-3.35-6.49-6-12.34H768.5c2.4,6,4.2,10.52,4.2,10.52a29.53,29.53,0,0,0,21.81,17.78c6.2,1.23,28.19.66,32.12.34,1.49-.23,1.61-1.31,1.81-2.32a1.71,1.71,0,0,0-1.62-2.11ZM751.77,135c-4.79,0-10.14-.83-10.09-8.57V111.91H710.25v15c0,7.49-5.36,8.39-9.7,8.41-1.09,0-1.48.8-1.48,2.1,0,1.77.5,2.28,1.44,2.28l51.27-.09c1,0,1.61-.54,1.63-2.42,0-1.38-.42-2.2-1.64-2.19Zm-50-118.82c4.41-.6,8.5-.44,8.49,7.31v86.31h31.43V76.18l1.94-.13c4-.27,10.26,1.17,13,6.71.87,1.75,6.65,16.12,11,27.07h32.46c-5.55-12.26-12.43-28.55-14.66-35.6,17.1-9.47,19.22-23.93,19.22-37,0-25.14-15.35-37-48-32.7l-56.14,7.18c-1,.13-1.46.73-1.46,2.57,0,1.35,1.59,2.11,2.71,2Zm41.72-3.43,3.74-.49c7.7-1,27.1,1.3,26.85,24.05-.21,18.89-8.15,30.3-19.4,31.16-6.88.52-12.64-1.28-13-6.11V15.17c0-1.74.44-2.2,1.8-2.39ZM599.36,19.43c5.59,0,11.82.46,11.82,7.84v82.56h30.73V75.22a6.57,6.57,0,0,1,.83,0c2.77,0,10.59-.71,15,1.07,7.33,3,10.77,13.93,12.38,20.31.28,1.09.66,1.33,1.38,1.33h1.3c.64,0,.88-.51.88-1.28V45.19c0-.77,0-1.53-.86-1.5l-1.57,0c-.54,0-.79.39-1,1.3-.73,2.76-4.26,18.68-13.09,22.73-2.45,1.12-12.28,2.06-14.37,2.1l-.83,0V20.8c0-.5.14-.65.62-.66l18.71-.49c7.3-.19,15,3.3,17.93,6.68,4.89,5.62,9.16,17.71,9.71,19.55a.91.91,0,0,0,1.18.71l1.53-.54c.59-.25.43-1.25.32-1.91L688.5,14.86c0-2-.62-2.94-3.48-2.85l-86.24,2.68c-1.21,0-1.86.56-1.86,2.33,0,1.29.3,2.41,2.44,2.41Zm95.74,81.8c-.55-.12-1.58-.2-2.21,1.39-.37.91-1.74,3.84-3.5,7.21h5.76c.43-2.39.84-4.58,1.19-6.41.34-1.6-.58-2-1.24-2.19Zm-12.6,19.84c-2.76,3.39-9.77,11.17-18,11.44-1.82.06-12.77.45-15.57.07-5.58-.75-7-2.19-7-9.62v-11H611.18v15.17c0,7.37-6.75,8.23-12.34,8.24-1.42,0-1.92.78-1.92,2.08,0,1.77.65,2.52,1.86,2.52l90.53,0c.94,0,1.39-1,1.51-2.06.74-6.63,2.44-17.27,4-25.93h-6.5a66,66,0,0,1-5.78,9.16ZM820.63,266a68.57,68.57,0,0,0,19.9,26.34V266Zm19.9-79.94a68.41,68.41,0,0,0-24,66.53h24Zm109.92,66.53a68.38,68.38,0,0,0-67-81.75,69.91,69.91,0,0,0-8.37.53v81.22ZM875.11,307a68.12,68.12,0,0,0,71.21-41H875.11ZM349.56,53.63C334.9,47.77,325.39,42,320.29,35.9l-1.08,37.92a167.51,167.51,0,0,0,18.44,10.3c16.14,7.88,25,16.52,26.29,25.71h23.24a36.9,36.9,0,0,0,.5-6.58c-.21-21.31-13-39.61-38.12-49.61ZM318.19,73.14V33a15.94,15.94,0,0,1-2.47-9,15.2,15.2,0,0,1,2.47-8.23V1C301.33,4.21,291.84,15.2,292,30.37c.2,17.77,8.28,30.75,26.18,42.77ZM321,12.88c4.37-3.38,11.46-4.63,21.24-3.09,15.12,2.37,33.86,17.79,40.09,36,.36,1,.65,1.94,1.5,2a4.84,4.84,0,0,0,1.68-.36c.56-.31.44-.69.14-2.19-1.48-7.16-3.67-25.42-4.38-32.21-.23-2-.83-2.89-2-3.11a11.45,11.45,0,0,0-3.11.22A15,15,0,0,1,372,10a15.38,15.38,0,0,1-2.84-.82c-5.72-2.46-19.09-6.76-26.47-8A73.44,73.44,0,0,0,321.3.48L321,12.88ZM281.64,86.62c2.14,5.8,4.26,14.63,6.11,23.21H304.8a105.47,105.47,0,0,1-18.22-24.39c-1-1.81-1.17-2.49-2.55-2.54a5,5,0,0,0-1.51.39c-.93.42-1.46.85-1.28,2,.07.45.33.9.4,1.35Zm82.47,25.29c0,.2,0,.4,0,.6-.15,11.58-11.1,17.71-26.94,14.86A56.19,56.19,0,0,1,321.51,122v19.35c5.16.39,10.34.5,15.84.5,23.95,0,44.87-10.34,49.42-30Zm-45.92,8.28A69.42,69.42,0,0,1,307,111.91H288.19c1.78,8.42,3.27,16.32,4.2,20.52.47,1.8,3.21,4.18,6.14,5a115.6,115.6,0,0,0,19.66,3.67v-20.9ZM79.71,227.42c-29.19-8.6-40.21-18-39.72-30.69.51-13.26,10.8-22.17,32.75-22.32,16.27-.11,39.84,15.85,48.16,38.4.45,1.54.88,2.42,2,2.38a5.18,5.18,0,0,0,1.51-.5c.94-.25,1.12-.7,1.07-1.59l-.06-1.33c-2.24-10.75-5.73-32.49-6.7-41.1-.3-2.57-.72-3.43-2.23-3.42a16.68,16.68,0,0,0-2.45.43,35,35,0,0,1-7,.67,19.45,19.45,0,0,1-3.66-.21c-7.43-1.93-21.62-4.53-30.76-4.53-37.62,0-59.79,20-61.27,49.92-1.57,32.11,16.18,47.84,53.38,60.38,22.79,7.65,34.16,21,34,34.2-.22,15-12.18,25.56-31.42,27.63-14.68,1.58-43.23-12-61.46-48.46-.67-1.8-1.23-2.83-2.73-2.78a5.18,5.18,0,0,0-1.64.57c-1,.56-1.58,1.1-1.41,2.41L.45,289c4.62,13.8,9.1,43.28,11.15,53.75.51,2.15,1.6,3.72,4.8,4.86,12,5.43,32,3.32,48.81,1.38,44.42-5.15,65.78-27.55,65.88-61.21.1-32.17-18.93-50.87-51.38-60.39Zm347.83-15.6c-22-7.68-30.14-15.22-29.79-24.49.37-9.81,8.05-15.14,24.89-15.14,13.07,0,30.78,14.79,37.19,32.05.34,1.17.68,1.85,1.61,1.87a4.08,4.08,0,0,0,1.24-.3c.78-.14.93-.47.91-1.14l0-1c-1.64-8.18-4.41-25.92-5.06-32.6-.21-2-.55-2.69-1.8-2.73a14.69,14.69,0,0,0-2,.25,29.64,29.64,0,0,1-5.75.27,17.09,17.09,0,0,1-3-.29c-5.95-1.74-16.14-4.21-23.32-4.58C394,162.45,378,176.2,377.17,198.09c-.87,22.83,11.68,35.13,38.67,46,17.09,6.88,25.65,16.89,25.3,26-.39,10.26-9.57,16.53-23.8,16.5-10.61,0-30.71-11.54-41.32-35.64-.36-1.19-.7-1.87-1.79-1.89a4.16,4.16,0,0,0-1.23.31c-.76.32-1.22.65-1.19,1.49l.2,1c2.38,9,5.08,26.3,5.81,32.88.21,1.36.87,2.37,3.08,3.22,8.27,3.92,22.85,7.29,34.86,7.29,33.22-.07,50.44-13.69,51.33-37.14.88-23-14.17-37.49-39.55-46.32ZM301.5,297c-10.86-1.34-15.15-4-15.12-9.13a14,14,0,0,1,1-4.64q2.85-8.88,5.7-17.7c9.13-.66,16.77-1.28,25.12-1.86v-8c-7.58.49-14.21,1-22.51,1.55,5.31-16.33,9-28,14.27-44,3,8.76,5.58,16.07,8.24,23.5V163.12c-2.73.18-3.88,1.29-4.76,3.9q-19,56.73-38.07,116.48c-2.56,8.13-7.4,13.69-15.87,17.25a2,2,0,0,0-.43-.07c-7.76-.16-9.65-.8-9.62-5.85V178.22c0-5,2.57-6,10.34-7.17.83-.19,1.52-.57,1.53-2.23s-.4-1.77-1.65-1.77c-11.82,0-26.18-.05-38,0-2.64,0-2.92,1.61-3.49,3.73-7.6,31.06-13.94,59.73-21.53,92.29-8.83-30.74-16.4-59.26-25.24-91.88-.55-2-1.09-4.15-3-4.14-12,.06-24.09-.06-36.14,0-1.25,0-1.67.72-1.68,2.63s.68,2.34,1.52,2.54c7.75,1.84,11.08,7.43,11,17.26-.16,37.29.16,76.22,0,113.52,0,9-3.9,16.07-11.64,20-.83.4-1.53,1-1.53,2.9s.4,2.25,1.65,1.95c10.49-2.51,23.47-5,34-7.31,1.24-.27,1.66-.77,1.67-2.6s-.68-2.1-1.51-2.13c-7.59-.4-13.09-5.17-13.09-14.34v-95c0-1.24.52-1.88.8-1.89s.69.6.95,1.63c10.44,39.89,18.37,66.84,28.78,104,1.5,4.95,2.46,5.57,6.33,4.92s5.13-1.24,6.4-6.95q13-57.28,25.92-111.48c.14-.78,1.26-.82,1.25-.05V298.21c0,5-2.53,6.62-9.59,8.63-.84.32-1.53.81-1.54,2.55s.4,2.07,1.65,1.88q22-3.36,44.06-6.16a4.1,4.1,0,0,0,1.92.05c12.83-1.42,28.42-2.73,41.27-4,1.92-.18,2.56-.42,2.57-2,0-1.44-.47-1.94-1.91-2.17Zm271.65-10.13c-8.23-1.21-10.58-2.08-10.59-6.57q-.1-51.87-.18-103.75c0-4.48,2.33-5.31,10.53-6.3.87-.16,1.61-.5,1.6-2s-.44-1.91-1.76-1.92c-16.15,0-31,0-47.15,0-1.31,0-1.75.4-1.75,1.89s.73,1.82,1.61,2c7.47.83,9.81,2,9.81,6.3q0,22.85,0,45.72c-11.34-.06-18.75-.07-30.1,0q0-22.84,0-45.69c0-4.31,2.34-5.47,9.81-6.29.88-.17,1.61-.5,1.61-2s-.44-1.89-1.75-1.89c-16.16,0-31,0-47.15,0-1.32,0-1.76.42-1.76,1.91s.73,1.83,1.6,2c8.2,1,10.55,1.81,10.54,6.29q-.08,51.81-.14,103.59c0,4.49-2.35,5.35-10.59,6.53a1.76,1.76,0,0,0-1.62,2c0,1.5.44,1.82,1.76,1.79,16.22-.38,31.13-.58,47.35-.6,1.33,0,1.77-.33,1.77-1.82s-.74-1.82-1.62-2c-7.5-.82-9.85-1.95-9.85-6.26q0-24.51,0-49c11.35,0,18.76,0,30.11,0q0,24.53,0,49c0,4.31-2.35,5.44-9.85,6.23-.88.16-1.61.49-1.61,2s.44,1.83,1.76,1.83c16.23.09,31.13.35,47.35.8,1.33,0,1.77-.29,1.76-1.79a1.77,1.77,0,0,0-1.62-2ZM382.9,290.68c-6.72-.46-11.35-2.75-13.09-7.14-15.16-38-30.28-76.69-45.37-116.55-.74-1.9-1.56-3-2.93-3.53v82.6c1,2.93,2.1,6,3.21,9.19l-3.21.19v8c1.91-.13,3.86-.26,5.89-.38q4.39,12.74,8.81,25.34a3.68,3.68,0,0,1,.3,1.73c0,2.12-2.25,2.81-8.34,4.17-2.24.54-2.56,1.27-2.57,2.69,0,1.24.47,1.73,1.91,1.61q27.6-2.28,55.21-4c1.45-.08,1.77-.62,1.77-2.16,0-1.2-.31-1.7-1.59-1.8Zm637.16-64c-29-11-39.43-20.66-39.27-32.55.17-12.39,9.46-20.55,30.72-20.35,16.71.16,45.2,17.13,53,41.25.41,1.66.83,2.62,2.17,2.69a6.67,6.67,0,0,0,1.8-.39c1.13-.19,1.36-.65,1.38-1.59l0-1.42c-1.79-11.55-4.19-34.63-4.66-43.69-.16-2.71-.58-3.6-2.31-3.61a22.83,22.83,0,0,0-2.83.44,42.52,42.52,0,0,1-7.95.64,23.2,23.2,0,0,1-4-.25c-7.92-2-27.76-4.64-37-4.64-35.54,0-54.35,17.91-55,44.81C955.37,237,971,253.49,1006.18,271c23.65,11.75,36.43,27.94,36.63,41.74.23,15.76-12.48,23.56-32.42,20.5-14.45-2.21-41.77-22.5-50.29-56.39-.2-1.62-.49-2.56-1.82-2.7a5.43,5.43,0,0,0-1.58.29c-1,.35-1.62.74-1.75,1.86-.05.45.08.92,0,1.37,1.12,12.27,1,36.06.52,45.26,0,1.9.61,3.43,3.22,5,9.73,7.09,33.57,15.38,49.94,18.08,47.73,7.88,72.47-10.18,71.3-47.53-1.11-35.41-24.33-58.36-59.9-71.79ZM832.31,302.87c-3.45,0-9-2.77-15.5-13.41-9.09-14.83-28-46.72-32.21-58.46,13.68-4,20.29-14.34,20.29-32.65,0-20.21-15.26-32-39.17-32h-59.3c-.94,0-1.89.76-1.89,2.31a1.8,1.8,0,0,0,1.73,2.08c8.81,1,11.33,1.9,11.33,6.56V285.82c0,4.66-2.52,5.38-11.33,5.88-.94.12-1.73.42-1.73,2s.48,1.93,1.89,2l52.06,3.13c1.42.09,1.89-.23,1.89-1.78a1.92,1.92,0,0,0-1.73-2.18c-8-1.35-10.54-2.71-10.54-7.2V234.09s6.65-.55,10.11,6.72c6.75,14.18,17,33,24.79,46.69,6.25,11.1,19.3,17.43,34.77,18.84a69.48,69.48,0,0,0,13.47.19,2.63,2.63,0,0,0,2.69-1.87c.31-1.49-.67-1.79-1.62-1.79Zm-72.57-77.23c-6.6,0-11.64-1.38-11.64-7.08V173.31s4.09-.35,8.66-.35c10.53,0,19.18,10,19.18,25,0,16.93-6.6,27.63-16.2,27.63Zm-81.55,2c-.67-.05-1.68-.22-1.68-.22s1.39-.17,1.68-.16c13.63.14,23.39-12.92,23.31-29.76-.1-20.31-14.35-31.23-36.6-31.21H609.71c-.88,0-1.76.43-1.76,1.93s.74,1.84,1.62,2c8.2,1,10.69,1.86,10.7,6.38.09,34.81-.1,69.62,0,104.43,0,4.52-2.2,5.27-10.43,6-.88.14-1.61.46-1.61,2s.45,1.85,1.77,1.89q28.88.9,57.75,2.55c26.88,1.62,40.77-8,40.65-33.25-.09-17.26-13.35-32.41-30.21-32.55Zm-29.48-54.8s3.62-.32,7.87-.3c9.22,0,17.9,9.95,18,24.83.07,16.42-5.75,27-15,26.75-1.76,0-10.84-.93-10.84-.93V172.89ZM661,286c-3.23-.17-12.24-2.79-12.25-7.17V230.66l2.07.05a47.34,47.34,0,0,1,8.66.74c13.79,3.09,20.73,13.64,20.79,28.55.1,21.43-8.84,26.52-19.27,26Z"/></svg>