<svg id="Layer_1" data-name="Layer 1" xmlns="http://www.w3.org/2000/svg" viewBox="0 0 1079.02 1080"><defs><style>.cls-1{fill:#666;}.cls-2{font-size:262.39px;fill:#4d4d4d;stroke:#fff;stroke-miterlimit:10;stroke-width:5px;font-family:Bangers-Regular, Bangers;letter-spacing:0.06em;}.cls-3{letter-spacing:0.02em;}.cls-4{letter-spacing:0.07em;}</style></defs><path class="cls-1" d="M43.07,751.66A541.69,541.69,0,0,0,200.25,959.74V751.66ZM200.25,120.24C78.14,219.23,0,370.45,0,540A542.45,542.45,0,0,0,10.44,645.8H200.25ZM1068.58,645.8A542.45,542.45,0,0,0,1079,540C1079,241.76,837.44,0,539.49,0a543.53,543.53,0,0,0-66.07,4.19V645.8Zm-595.16,430a543.54,543.54,0,0,0,66.07,4.18c222.88,0,414.17-135.32,496.47-328.34H473.42Z"/><text class="cls-2" transform="translate(154.33 751.13)">B<tspan class="cls-3" x="127.26" y="0">A</tspan><tspan x="246.12" y="0">TTL</tspan><tspan class="cls-4" x="560.2" y="0">E</tspan><tspan x="668.56" y="0">!</tspan></text></svg>