<svg id="Layer_1" data-name="Layer 1" xmlns="http://www.w3.org/2000/svg" viewBox="0 0 1079.02 1080"><defs><style>.cls-1{fill:#ff3837;}</style></defs><path class="cls-1" d="M43.07,751.66A541.69,541.69,0,0,0,200.25,959.74V751.66ZM200.25,120.24C78.14,219.23,0,370.45,0,540A542.45,542.45,0,0,0,10.44,645.8H200.25ZM1068.58,645.8A542.45,542.45,0,0,0,1079,540C1079,241.76,837.44,0,539.49,0a543.53,543.53,0,0,0-66.07,4.19V645.8Zm-595.16,430a543.54,543.54,0,0,0,66.07,4.18c222.88,0,414.17-135.32,496.47-328.34H473.42Z"/></svg>